PathFileType	4	(X/Y/Z)	G:\マイドライブ\biomec\experimentalData\240725\CJ2.trc
DataRate	CameraRate	NumFrames	NumMarkers	Units	OrigDataRate	OrigDataStartFrame	OrigNumFrames
200.00	200.00	      5	52	mm	200.00	1455	      1662
Frame#	Time	handR			wrRI			wrRO			elbRI			elbRO			shRF			shRU			shRB			handL			wrLI			wrLO			elbLI			elbLO			shLF			shLU			shLB			toeR			baRI			baRO			heelR			anRI			anRO			knRI			knRO			troR			toeL			baLI			baLO			heelL			anLI			anLO			knLI			knLO			troL			head			earR			earL			clav			c7			ribR			ribL			xiph			ASISR			ASISL			PSISR			PSISL			t8			t11			L1			L3			LS			COX			
		X1	Y1	Z1	X2	Y2	Z2	X3	Y3	Z3	X4	Y4	Z4	X5	Y5	Z5	X6	Y6	Z6	X7	Y7	Z7	X8	Y8	Z8	X9	Y9	Z9	X10	Y10	Z10	X11	Y11	Z11	X12	Y12	Z12	X13	Y13	Z13	X14	Y14	Z14	X15	Y15	Z15	X16	Y16	Z16	X17	Y17	Z17	X18	Y18	Z18	X19	Y19	Z19	X20	Y20	Z20	X21	Y21	Z21	X22	Y22	Z22	X23	Y23	Z23	X24	Y24	Z24	X25	Y25	Z25	X26	Y26	Z26	X27	Y27	Z27	X28	Y28	Z28	X29	Y29	Z29	X30	Y30	Z30	X31	Y31	Z31	X32	Y32	Z32	X33	Y33	Z33	X34	Y34	Z34	X35	Y35	Z35	X36	Y36	Z36	X37	Y37	Z37	X38	Y38	Z38	X39	Y39	Z39	X40	Y40	Z40	X41	Y41	Z41	X42	Y42	Z42	X43	Y43	Z43	X44	Y44	Z44	X45	Y45	Z45	X46	Y46	Z46	X47	Y47	Z47	X48	Y48	Z48	X49	Y49	Z49	X50	Y50	Z50	X51	Y51	Z51	X52	Y52	Z52	

1455	7.270	272.81232	1494.80212	1036.05762	213.55241	1527.29761	1005.53192	253.12231	1577.23645	1041.63818	111.91036	1666.69360	1184.48694	64.92553	1601.89111	1190.12793	255.74266	1465.52332	1395.96985	224.41614	1515.85498	1430.75684	229.16389	1573.44189	1403.16821	560.90607	1478.67017	1053.79651	641.68317	1512.68958	1037.84729	593.97876	1546.64905	1086.17053	748.39240	1649.12024	1205.22119	798.31641	1578.96204	1208.59070	577.70160	1455.38086	1394.78601	612.52435	1502.58118	1429.64063	599.86945	1570.32739	1395.57581	280.12506	1437.21570	54.26455	332.58774	1515.12195	39.48306	210.74944	1546.68921	45.07751	314.83041	1721.25012	42.36560	342.68082	1633.81384	117.59805	251.51653	1660.01233	104.78224	351.95813	1612.23401	473.44156	248.53223	1603.33435	477.65378	251.05785	1546.00500	872.55383	621.11340	1406.68506	58.34889	561.69165	1467.83508	55.70718	667.31549	1513.98486	53.13829	570.57568	1686.95935	41.77457	541.48560	1592.15613	132.22636	625.54388	1629.26758	114.49023	507.06131	1579.68079	478.75287	612.53589	1586.44666	493.55002	592.61707	1541.09827	877.26752	416.72528	1532.12256	1695.67480	334.67484	1434.36804	1555.27185	492.29321	1423.32178	1559.55920	418.39532	1434.94727	1382.53931	424.92813	1546.58862	1474.79724	315.02048	1483.73071	1088.31543	530.63580	1477.14954	1088.30835	418.42114	1423.70935	1223.40674	312.74203	1472.28564	957.98370	534.10327	1473.06091	974.53546	363.43469	1640.77930	1005.29517	483.53412	1636.79968	1012.58936	427.14938	1640.53320	1274.71033	424.63171	1636.01440	1144.35510	426.34363	1629.27295	1084.59753	423.39001	1634.20471	1038.48853	425.57040	1649.88562	1001.70398	428.49551	1684.54651	902.30066	
1456	7.275	272.34628	1494.97083	1035.85938	213.16325	1527.46436	1005.12134	252.78049	1577.40747	1041.16370	111.33656	1667.04211	1183.72119	64.38297	1602.41248	1189.59204	255.04135	1466.22510	1395.63245	223.76350	1516.47803	1430.41321	228.35526	1574.01416	1402.60767	560.39337	1479.07532	1053.69641	641.20526	1513.27209	1037.71301	593.43365	1547.27551	1085.92493	748.64191	1649.04749	1205.26538	797.76813	1579.94995	1208.51343	576.93304	1456.12646	1394.70544	611.85956	1503.43311	1429.60974	599.11456	1571.33728	1395.61792	280.13028	1437.18994	54.24934	332.60306	1515.11096	39.47078	210.75339	1546.68323	45.08218	314.77530	1721.25244	42.32150	342.69489	1633.88965	117.53758	251.51038	1660.02283	104.74726	351.66766	1612.49304	473.47211	248.26729	1603.51770	477.61789	250.43201	1546.10437	872.46478	621.10602	1406.68286	58.35098	561.71539	1467.83203	55.70295	667.33459	1513.96814	53.16080	570.57758	1686.95654	41.76090	541.44312	1592.19812	132.21992	625.25446	1628.82471	114.43344	506.70584	1580.30420	478.64664	612.31793	1586.91260	493.63242	592.01636	1541.73279	877.32391	415.81110	1532.52283	1695.64978	333.89063	1434.94250	1554.90271	491.27310	1424.02673	1559.45239	417.81598	1435.91663	1382.31763	424.32382	1547.26038	1474.79517	314.60135	1483.98474	1088.25330	530.20135	1477.84436	1088.29663	417.92896	1424.35583	1223.31299	312.35480	1472.41626	957.89893	533.75806	1473.53296	974.47815	362.79404	1641.08936	1005.12103	483.11996	1637.14429	1012.40057	426.32321	1641.28699	1274.60046	423.95752	1636.44641	1144.16748	425.79047	1629.65295	1084.43066	422.79282	1634.54749	1038.36169	424.92090	1650.25366	1001.52710	427.95972	1684.82190	902.26746	
1457	7.280	271.92496	1495.08521	1035.62207	212.88553	1527.50732	1004.74744	252.48538	1577.60815	1040.74390	110.99709	1667.32654	1182.95471	63.95634	1602.73010	1189.10925	254.34950	1466.91211	1395.30762	223.10367	1517.17566	1430.02283	227.77194	1574.75305	1402.12817	559.84583	1479.60547	1053.56726	640.75751	1513.81201	1037.55786	592.92157	1547.69055	1085.66187	746.79785	1650.75317	1204.71802	797.23035	1580.79016	1208.34058	576.12000	1457.22925	1394.61279	611.17242	1504.27808	1429.57544	598.59326	1572.12634	1395.61499	280.14795	1437.17346	54.22385	332.61298	1515.12390	39.43646	210.76328	1546.66333	45.07265	314.79944	1721.24854	42.31083	342.67386	1633.97400	117.51260	251.50360	1660.04077	104.73598	351.40497	1612.81726	473.48856	248.03398	1603.76563	477.56967	249.89857	1546.22241	872.37384	621.11334	1406.68250	58.36647	561.70184	1467.83508	55.69033	667.34583	1513.94922	53.15700	570.57434	1686.97046	41.76418	541.43939	1592.25549	132.20042	625.19232	1628.91309	114.40339	506.31772	1580.96313	478.54993	612.00885	1587.45300	493.55685	591.53473	1542.15063	877.17511	414.63757	1532.99097	1695.60278	333.00424	1435.60571	1554.73914	490.47345	1424.72192	1559.33789	417.20950	1436.73853	1382.17810	423.49127	1548.00732	1474.71277	314.23294	1484.35779	1088.08936	529.59302	1478.47009	1088.22119	417.57117	1424.89819	1223.22021	311.93695	1472.58398	957.79614	533.49817	1473.84338	974.43799	362.17929	1641.38721	1004.97174	482.57254	1637.52014	1012.28961	425.55716	1641.97717	1274.53052	423.28516	1637.09607	1144.02087	425.20187	1630.12610	1084.11560	422.21823	1634.91248	1038.23267	424.47379	1650.45862	1001.30524	427.37659	1685.12231	902.15393	
1458	7.285	271.52808	1495.12756	1035.39258	212.55203	1527.54309	1004.36279	252.17084	1577.77319	1040.33765	110.72857	1667.59314	1182.23633	63.57219	1603.02747	1188.43298	253.73082	1467.64099	1394.99512	222.39247	1517.78906	1429.71814	227.11441	1575.42615	1401.79565	559.32117	1480.19958	1053.33850	640.28656	1514.33887	1037.35657	592.50031	1548.04504	1085.41150	745.94128	1651.63501	1204.51147	796.47308	1581.57007	1208.15210	575.55786	1457.94690	1394.59998	610.56940	1505.18164	1429.56799	597.76892	1573.11450	1395.59851	280.16501	1437.19275	54.19356	332.67279	1515.09875	39.41597	210.78294	1546.66370	45.06640	314.83398	1721.25549	42.30420	342.65967	1633.95581	117.53848	251.52225	1660.05164	104.67625	351.03928	1613.30469	473.49664	247.77458	1603.98499	477.56747	249.34039	1546.23621	872.34875	621.11877	1406.70325	58.34109	561.71161	1467.84143	55.69425	667.35895	1514.00061	53.14336	570.58600	1686.96301	41.76548	541.38171	1592.32043	132.17021	625.15778	1628.94788	114.40355	506.00967	1581.52710	478.41934	611.60114	1588.28870	493.44611	590.71173	1542.67322	876.93933	413.45938	1533.33142	1695.61438	332.11053	1436.37036	1554.46790	489.80853	1425.21863	1559.30188	416.72516	1437.30444	1382.09033	422.84265	1548.61658	1474.63159	313.86926	1484.69983	1087.96130	529.06842	1479.05811	1088.15332	417.28769	1425.62073	1223.10168	311.57849	1472.73083	957.72937	533.21692	1474.06104	974.39246	361.70102	1641.56128	1004.74731	481.99619	1637.94470	1012.10034	424.94135	1642.59192	1274.46753	422.74695	1637.58118	1143.82678	424.66113	1630.48535	1084.04736	421.73218	1635.20386	1038.07629	424.00571	1650.68127	1001.16595	426.69519	1685.46960	902.04309	
1459	7.290	271.20999	1495.11426	1035.15930	212.19582	1527.55029	1004.03406	251.91080	1577.82739	1039.86365	110.25433	1667.95166	1181.31543	63.11114	1603.41357	1187.64417	253.30602	1468.18677	1394.71863	221.61049	1518.39807	1429.37036	226.40981	1576.07874	1401.23840	558.93768	1480.58228	1053.18933	639.86694	1514.87183	1037.16772	592.01740	1548.52051	1085.14148	746.30066	1651.64758	1204.52600	795.62878	1582.48987	1208.02258	575.05573	1458.68787	1394.62329	609.92499	1506.12329	1429.49146	597.14618	1573.97595	1395.57153	280.18140	1437.18213	54.16609	332.65323	1515.10571	39.40776	210.78030	1546.64697	45.08158	314.85144	1721.25623	42.26915	342.64230	1634.00537	117.55856	251.51474	1660.08435	104.67236	350.72394	1613.69421	473.44333	247.55556	1604.24377	477.51718	248.97194	1546.32544	872.28326	621.14899	1406.70496	58.36756	561.73651	1467.85718	55.68380	667.35559	1513.94531	53.11080	570.56427	1686.97302	41.75662	541.36432	1592.36462	132.15733	625.12665	1629.01599	114.40480	505.69733	1582.07031	478.34393	611.18390	1589.19531	493.41028	590.37866	1542.99121	876.74841	412.42368	1533.72595	1695.65283	331.45038	1436.83972	1554.11658	488.98984	1425.92126	1559.25439	416.22025	1438.07922	1381.96375	421.99457	1549.38159	1474.57886	313.45383	1484.98022	1087.85376	528.65924	1479.50977	1088.10278	416.86118	1426.36536	1222.99731	311.26782	1472.88757	957.65533	533.18451	1474.18433	974.18671	361.35205	1641.67310	1004.52283	481.52383	1638.36060	1011.90570	424.28766	1643.21875	1274.29761	422.38803	1637.92664	1143.63757	424.23273	1630.78528	1083.83655	421.25070	1635.47449	1037.95056	423.51028	1650.94617	1001.01715	426.14197	1685.82056	901.87488	
